# xmcd
#
# Track frame offsets: 
#        150
#        27395
#        46907
#        63567
#        90382
#        109720
#        131765
#        150192
#        168085
#        190487
#        200840
#        222485
#        231802
#        242317
#        256585
#        274807
#        281755
#        294690
#        303395
#        312525
#        320740
#
# Disc length: 4354 seconds
#
# Revision: 15
# Processed by: cddbd v1.5.2PL0 Copyright (c) Steve Scherf et al.
# Submitted via: ExactAudioCopy v0.99pb5
#
DISCID=35110015
DTITLE=Michael Jackson - Thriller (Special Edition)
DYEAR=2001
DGENRE=Pop
TTITLE0=Wanna Be Startin' Somethin'
TTITLE1=Baby Be Mine
TTITLE2=The Girl Is Mine (with Paul McCartney)
TTITLE3=Thriller
TTITLE4=Beat It
TTITLE5=Billie Jean
TTITLE6=Human Nature
TTITLE7=P. Y. T. (Pretty Young Thing)
TTITLE8=The Lady In My Life
TTITLE9=Interview With Quincy Jones - About "Someone In The Dark" (Bon
TTITLE9=us Track)
TTITLE10=Someone In The Dark (Bonus Track)
TTITLE11=Interview With Quincy Jones - About Being A Producer (Bonus T
TTITLE11=rack)
TTITLE12=Billie Jean (Home Demo From 1981) (Bonus Track)
TTITLE13=Interview With Quincy Jones - About Thriller's Songs (Bonus T
TTITLE13=rack)
TTITLE14=Interview With Rod Temperton - About Vincent Price (Bonus Tra
TTITLE14=ck)
TTITLE15=Interview With Quincy Jones - About Vincent Price (Bonus Trac
TTITLE15=k)
TTITLE16=Michael Jackson and Vincent Price - Voice-Over Session From 'Th
TTITLE16=riller' (Bonus Track)
TTITLE17=Interview With Rod Temperton - About "Carousel" (Bonus Track)
TTITLE18=Interview With Quincy Jones - About "Carousel" (Bonus Track)
TTITLE19=Carousel (Bonus Track)
TTITLE20=Interview With Quincy Jones - Final Thoughts On "Thriller" (B
TTITLE20=onus Track)
EXTD=YEAR: 1982
EXTT0=
EXTT1=
EXTT2=
EXTT3=
EXTT4=
EXTT5=
EXTT6=
EXTT7=
EXTT8=
EXTT9=
EXTT10=
EXTT11=
EXTT12=
EXTT13=
EXTT14=
EXTT15=
EXTT16=
EXTT17=
EXTT18=
EXTT19=
EXTT20=
PLAYORDER=
